<svg width="24" height="24" viewBox="0 0 24 24" fill="none" xmlns="http://www.w3.org/2000/svg">
<path d="M12.9654 23.3658L15.107 21.2242C15.8158 21.7126 16.6738 22.0002 17.5998 22.0002C20.0298 22.0002 21.9998 20.0302 21.9998 17.6002C21.9998 15.1702 20.0298 13.2002 17.5998 13.2002C15.1698 13.2002 13.1998 15.1702 13.1998 17.6002C13.1998 18.5262 13.4874 19.3842 13.9758 20.093L11.8342 22.2346L12.9654 23.3658ZM14.7998 17.6002C14.7998 16.0538 16.0534 14.8002 17.5998 14.8002C19.1462 14.8002 20.3998 16.0538 20.3998 17.6002C20.3998 19.1466 19.1462 20.4002 17.5998 20.4002C16.0534 20.4002 14.7998 19.1466 14.7998 17.6002Z" fill="white"/>
<path d="M10.2064 21.6002L12.0148 19.7918C11.7416 19.0986 11.6 18.3582 11.6 17.6002C11.6 14.2918 14.2916 11.6002 17.6 11.6002C18.7768 11.6002 19.8728 11.9458 20.8 12.5334V2.0002C20.8 1.5582 20.4416 1.2002 20 1.2002H3.99995C3.55835 1.2002 3.19995 1.5582 3.19995 2.0002V20.8002C3.19995 21.2418 3.55835 21.6002 3.99995 21.6002H10.2064ZM18 8.4002H5.99995V6.8002H18V8.4002ZM18 5.2002H5.99995V3.6002H18V5.2002Z" fill="white"/>
</svg>
