<svg width="32" height="32" viewBox="0 0 32 32" fill="none" xmlns="http://www.w3.org/2000/svg">
<g clip-path="url(#clip0_1991_19500)">
<path d="M31.6002 12.8423L26.9375 8.9567V4.18752C26.9375 3.66977 26.5177 3.25002 26 3.25002H20.0997L16.614 0.229078C16.2616 -0.0763594 15.7384 -0.0763594 15.386 0.229078L11.9003 3.25002H6C5.48225 3.25002 5.0625 3.66977 5.0625 4.18752V8.9567L0.399812 12.8423C0.186125 13.0204 0.0625 13.2843 0.0625 13.5625V31.0625C0.0625 31.5803 0.48225 32 1 32H31C31.5177 32 31.9375 31.5803 31.9375 31.0625V13.5625C31.9375 13.2843 31.8139 13.0204 31.6002 12.8423ZM10.7229 22.3125L1.9375 29.1457V15.4793L10.7229 22.3125ZM12.5716 23.25H19.4283L28.2676 30.125H3.73237L12.5716 23.25ZM21.2771 22.3125L30.0625 15.4793V29.1457L21.2771 22.3125ZM29.5054 13.5373L26.9375 15.5346V11.3974L29.5054 13.5373ZM16 2.17814L17.2368 3.25002H14.7632L16 2.17814ZM25.0625 5.12502V16.9929L19.4284 21.375H12.5716L6.9375 16.9929V5.12502H25.0625ZM5.0625 15.5346L2.49463 13.5373L5.0625 11.3975V15.5346Z" fill="white"/>
<path d="M11.8137 18.6695C12.965 19.5665 14.3991 20.0826 15.8519 20.1228C15.8608 20.123 15.8695 20.1231 15.8784 20.1231C16.3841 20.1231 16.801 19.7203 16.815 19.2116C16.8293 18.694 16.4213 18.2628 15.9038 18.2485C13.7 18.1875 11.7683 16.6525 11.2063 14.5155C10.5295 11.9421 11.987 9.29358 14.5244 8.48583C15.8117 8.07608 17.1784 8.1967 18.3724 8.82558C19.5622 9.45214 20.4327 10.5046 20.8247 11.79C21.069 12.7173 20.986 13.5842 20.548 14.6853C20.4401 14.9566 20.1074 15.5878 19.3509 15.5878C19.2673 15.5878 19.1928 15.5255 19.1559 15.4883C19.0491 15.381 18.9859 15.2215 18.9867 15.0616L19.0125 9.85314C19.015 9.33539 18.5974 8.91358 18.0796 8.91101C18.078 8.91101 18.0765 8.91101 18.0749 8.91101C17.6174 8.91101 17.2365 9.23933 17.1545 9.67389C16.7315 9.45145 16.2609 9.33339 15.7655 9.33339C14.865 9.33339 13.983 9.73814 13.3457 10.4438C12.6994 11.1593 12.3435 12.1329 12.3435 13.185C12.3435 14.2325 12.678 15.2165 13.2854 15.956C13.9153 16.723 14.7963 17.1629 15.7024 17.1629C16.396 17.1629 17.0332 16.9156 17.5587 16.4883C17.6385 16.603 17.7277 16.7115 17.8267 16.811C18.245 17.2314 18.7864 17.4629 19.3509 17.4629C20.9069 17.4629 21.8895 16.3861 22.2904 15.3783C22.8833 13.8874 22.9889 12.6271 22.6325 11.2921C22.6299 11.2823 22.6272 11.2726 22.6242 11.263C22.088 9.48626 20.8884 8.03151 19.2461 7.16664C17.6042 6.30183 15.7252 6.13589 13.9557 6.69926C12.2784 7.2332 10.8831 8.38395 10.0269 9.93958C9.17042 11.4957 8.94523 13.2902 9.39292 14.9925C9.78061 16.4662 10.6177 17.7377 11.8137 18.6695ZM15.7025 15.2879C14.9859 15.2879 14.2186 14.4429 14.2186 13.185C14.2186 11.9478 15.0052 11.2084 15.7656 11.2084C16.5399 11.2084 17.0879 11.9639 17.1216 13.0591L17.1204 13.2948C17.0759 14.405 16.4571 15.2879 15.7025 15.2879Z" fill="white"/>
</g>
<defs>
<clipPath id="clip0_1991_19500">
<rect width="32" height="32" fill="white"/>
</clipPath>
</defs>
</svg>
