<svg width="32" height="32" viewBox="0 0 32 32" fill="none" xmlns="http://www.w3.org/2000/svg">
<path d="M29.5661 11.1916C29.2612 11.1916 28.9688 11.3128 28.7532 11.5284C28.5376 11.744 28.4165 12.0364 28.4165 12.3413V25.1022C28.4151 26.3214 27.9302 27.4902 27.0681 28.3523C26.206 29.2144 25.0371 29.6994 23.8179 29.7007H8.18295C6.96334 29.7007 5.79369 29.2162 4.9313 28.3538C4.06891 27.4915 3.58442 26.3218 3.58442 25.1022V9.4672C3.58442 8.2476 4.06891 7.07794 4.9313 6.21555C5.79369 5.35316 6.96334 4.86868 8.18295 4.86868H19.4493C19.6925 5.75656 20.2457 6.52796 21.0087 7.0431C21.7716 7.55825 22.6939 7.78306 23.6083 7.6768C24.5227 7.57054 25.3689 7.14025 25.9934 6.46388C26.6179 5.78751 26.9794 4.90982 27.0126 3.98983C27.0457 3.06984 26.7482 2.16842 26.1739 1.4489C25.5997 0.729375 24.7867 0.239351 23.8822 0.0676157C22.9778 -0.10412 22.0418 0.0537933 21.2438 0.512743C20.4457 0.971693 19.8385 1.70132 19.5321 2.56941H8.18295C6.35354 2.56941 4.59906 3.29614 3.30547 4.58973C2.01189 5.88332 1.28516 7.63779 1.28516 9.4672L1.28516 25.1022C1.28516 26.9316 2.01189 28.6861 3.30547 29.9797C4.59906 31.2733 6.35354 32 8.18295 32H23.8179C25.6473 32 27.4018 31.2733 28.6954 29.9797C29.989 28.6861 30.7157 26.9316 30.7157 25.1022V12.3413C30.7157 12.0364 30.5946 11.744 30.379 11.5284C30.1634 11.3128 29.871 11.1916 29.5661 11.1916Z" fill="white"/>
<path d="M22.76 25.2925C22.76 25.5974 22.8811 25.8898 23.0967 26.1054C23.3123 26.321 23.6047 26.4421 23.9097 26.4421C24.2146 26.4421 24.507 26.321 24.7226 26.1054C24.9382 25.8898 25.0593 25.5974 25.0593 25.2925C25.0593 23.0354 24.6147 20.8005 23.751 18.7153C22.8873 16.6301 21.6213 14.7354 20.0253 13.1394C18.4294 11.5435 16.5347 10.2775 14.4495 9.41375C12.3642 8.55002 10.1293 8.10547 7.87229 8.10547C7.56739 8.10547 7.27497 8.22659 7.05938 8.44219C6.84378 8.65779 6.72266 8.9502 6.72266 9.2551C6.72266 9.56 6.84378 9.85242 7.05938 10.068C7.27497 10.2836 7.56739 10.4047 7.87229 10.4047C16.0812 10.4047 22.76 17.0835 22.76 25.2925Z" fill="white"/>
<path d="M15.2299 25.2897C15.2299 25.5946 15.3511 25.887 15.5667 26.1026C15.7822 26.3182 16.0747 26.4394 16.3796 26.4394C16.6845 26.4394 16.9769 26.3182 17.1925 26.1026C17.4081 25.887 17.5292 25.5946 17.5292 25.2897C17.5292 19.9646 13.1974 15.6328 7.87229 15.6328C7.56739 15.6328 7.27497 15.7539 7.05938 15.9695C6.84378 16.1851 6.72266 16.4775 6.72266 16.7824C6.72266 17.0873 6.84378 17.3798 7.05938 17.5954C7.27497 17.811 7.56739 17.9321 7.87229 17.9321C9.823 17.9342 11.6932 18.7101 13.0726 20.0894C14.4519 21.4688 15.2278 23.339 15.2299 25.2897Z" fill="white"/>
<path d="M8.1597 26.4444C8.95335 26.4444 9.59674 25.801 9.59674 25.0074C9.59674 24.2137 8.95335 23.5703 8.1597 23.5703C7.36604 23.5703 6.72266 24.2137 6.72266 25.0074C6.72266 25.801 7.36604 26.4444 8.1597 26.4444Z" fill="white"/>
</svg>
