<svg width="20" height="20" viewBox="0 0 20 20" fill="none" xmlns="http://www.w3.org/2000/svg">
<g id="Layer_1" clip-path="url(#clip0_1991_34785)">
<path id="Vector" fill-rule="evenodd" clip-rule="evenodd" d="M5.02402 9.02221V13.048H14.9759V9.02221C14.9759 7.70251 14.4516 6.43686 13.5185 5.50369C12.5853 4.57052 11.3197 4.04628 9.99995 4.04628C8.68025 4.04628 7.4146 4.57052 6.48143 5.50369C5.54826 6.43686 5.02402 7.70251 5.02402 9.02221ZM9.34663 1.90503C9.34659 2.03425 9.38488 2.16058 9.45664 2.26804C9.52841 2.37551 9.63043 2.45928 9.7498 2.50875C9.86918 2.55823 10.0005 2.5712 10.1273 2.54601C10.254 2.52083 10.3705 2.45862 10.4619 2.36726C10.5532 2.2759 10.6155 2.15949 10.6407 2.03275C10.6659 1.90601 10.653 1.77464 10.6036 1.65525C10.5541 1.53586 10.4704 1.43382 10.3629 1.36202C10.2555 1.29022 10.1292 1.2519 9.99995 1.2519C9.82675 1.25202 9.66068 1.32087 9.53819 1.44332C9.4157 1.56577 9.34681 1.73183 9.34663 1.90503ZM15.6373 14.298H4.36269C4.09669 14.2996 3.84215 14.4065 3.65464 14.5952C3.46713 14.7838 3.36189 15.039 3.36189 15.305C3.36189 15.571 3.46713 15.8263 3.65464 16.0149C3.84215 16.2036 4.09669 16.3104 4.36269 16.3121H15.6373C15.9033 16.3104 16.1578 16.2036 16.3453 16.0149C16.5328 15.8263 16.6381 15.571 16.6381 15.305C16.6381 15.039 16.5328 14.7838 16.3453 14.5952C16.1578 14.4065 15.9033 14.2996 15.6373 14.298ZM11.4829 17.5621H8.51702C8.59193 17.8995 8.7797 18.2013 9.04932 18.4177C9.31893 18.634 9.65427 18.7519 9.99995 18.7519C10.3456 18.7519 10.681 18.634 10.9506 18.4177C11.2202 18.2013 11.408 17.8995 11.4829 17.5621ZM8.43991 2.99456C8.24038 2.70926 8.1229 2.37471 8.10027 2.02729C8.07764 1.67988 8.15072 1.33291 8.31156 1.02414C8.4724 0.71537 8.71484 0.456623 9.0125 0.276052C9.31016 0.09548 9.65165 0 9.9998 0C10.3479 0 10.6894 0.09548 10.9871 0.276052C11.2848 0.456623 11.5272 0.71537 11.688 1.02414C11.8489 1.33291 11.922 1.67988 11.8993 2.02729C11.8767 2.37471 11.7592 2.70926 11.5597 2.99456C14.2401 3.68823 16.2251 6.12776 16.2251 9.02221V13.1262C16.7534 13.2687 17.2119 13.5983 17.5153 14.0537C17.8187 14.5091 17.9464 15.0592 17.8745 15.6016C17.8026 16.1441 17.5361 16.6419 17.1245 17.0026C16.713 17.3632 16.1845 17.562 15.6373 17.5621H12.7484C12.6681 18.2346 12.3441 18.8544 11.8376 19.304C11.3311 19.7537 10.6773 20.002 9.99995 20.002C9.32265 20.002 8.66885 19.7537 8.16235 19.304C7.65584 18.8544 7.3318 18.2346 7.25156 17.5621H4.36269C3.81548 17.5621 3.2869 17.3633 2.87532 17.0027C2.46374 16.642 2.1972 16.1442 2.12529 15.6017C2.05338 15.0593 2.18101 14.5091 2.48442 14.0537C2.78784 13.5984 3.24636 13.2687 3.77468 13.1262V9.02221C3.77468 6.12768 5.75968 3.68823 8.44007 2.99456H8.43991ZM9.37511 5.84335C9.37508 5.76129 9.39121 5.68003 9.42259 5.6042C9.45397 5.52838 9.49998 5.45948 9.55799 5.40145C9.616 5.34341 9.68487 5.29736 9.76068 5.26595C9.83649 5.23453 9.91774 5.21836 9.9998 5.21835C11.0074 5.2222 11.9727 5.62422 12.6852 6.33677C13.3977 7.04931 13.7996 8.01461 13.8034 9.02225C13.8034 9.10429 13.7872 9.18552 13.7558 9.26131C13.7244 9.3371 13.6784 9.40596 13.6204 9.46397C13.5624 9.52198 13.4935 9.56799 13.4177 9.59939C13.3419 9.63078 13.2607 9.64694 13.1787 9.64694C13.0966 9.64694 13.0154 9.63078 12.9396 9.59939C12.8638 9.56799 12.795 9.52198 12.7369 9.46397C12.6789 9.40596 12.6329 9.3371 12.6015 9.26131C12.5701 9.18552 12.554 9.10429 12.554 9.02225C12.5532 8.34512 12.2839 7.69594 11.8051 7.21715C11.3263 6.73835 10.6771 6.46904 9.99995 6.46831C9.91789 6.46833 9.83662 6.45218 9.7608 6.42078C9.68498 6.38938 9.6161 6.34334 9.55808 6.2853C9.50006 6.22726 9.45405 6.15835 9.42269 6.08252C9.39132 6.00668 9.3752 5.92541 9.37527 5.84335H9.37511Z" fill="#006BFF"/>
</g>
<defs>
<clipPath id="clip0_1991_34785">
<rect width="20" height="20" fill="white"/>
</clipPath>
</defs>
</svg>
