<svg width="20" height="20" viewBox="0 0 20 20" fill="none" xmlns="http://www.w3.org/2000/svg">
<g id="Frame" clip-path="url(#clip0_1991_34787)">
<g id="Layer 2">
<g id="Layer 1">
<path id="Vector" d="M18.4786 6.99478C18.288 6.99478 18.1052 7.07048 17.9705 7.20523C17.8357 7.33998 17.76 7.52274 17.76 7.7133V15.6889C17.7592 16.4509 17.4561 17.1814 16.9173 17.7202C16.3785 18.259 15.648 18.5621 14.886 18.563H5.1141C4.35184 18.563 3.62081 18.2601 3.08182 17.7212C2.54282 17.1822 2.24002 16.4511 2.24002 15.6889V5.917C2.24002 5.15475 2.54282 4.42372 3.08182 3.88472C3.62081 3.34573 4.35184 3.04292 5.1141 3.04292H12.1556C12.3076 3.59785 12.6533 4.07997 13.1302 4.40194C13.607 4.7239 14.1834 4.86441 14.755 4.798C15.3265 4.73159 15.8553 4.46266 16.2456 4.03993C16.6359 3.6172 16.8619 3.06864 16.8826 2.49364C16.9033 1.91865 16.7174 1.35526 16.3585 0.905561C15.9995 0.455859 15.4914 0.149595 14.9262 0.0422598C14.3609 -0.065075 13.7759 0.0336208 13.2771 0.320464C12.7783 0.607308 12.3988 1.06332 12.2073 1.60588H5.1141C3.97072 1.60588 2.87417 2.06009 2.06568 2.86858C1.25718 3.67707 0.802979 4.77362 0.802979 5.917L0.802979 15.6889C0.802979 16.8323 1.25718 17.9288 2.06568 18.7373C2.87417 19.5458 3.97072 20 5.1141 20H14.886C16.0293 20 17.1259 19.5458 17.9344 18.7373C18.7429 17.9288 19.1971 16.8323 19.1971 15.6889V7.7133C19.1971 7.52274 19.1214 7.33998 18.9866 7.20523C18.8519 7.07048 18.6691 6.99478 18.4786 6.99478Z" fill="#006BFF"/>
<path id="Vector_2" d="M14.2253 15.8083C14.2253 15.9988 14.301 16.1816 14.4357 16.3163C14.5705 16.4511 14.7532 16.5268 14.9438 16.5268C15.1343 16.5268 15.3171 16.4511 15.4518 16.3163C15.5866 16.1816 15.6623 15.9988 15.6623 15.8083C15.6623 14.3976 15.3845 13.0008 14.8446 11.6975C14.3048 10.3943 13.5136 9.2101 12.5161 8.21263C11.5186 7.21515 10.3344 6.42391 9.03116 5.88408C7.7279 5.34425 6.33107 5.06641 4.92042 5.06641C4.72986 5.06641 4.5471 5.14211 4.41235 5.27686C4.27761 5.4116 4.2019 5.59436 4.2019 5.78493C4.2019 5.97549 4.27761 6.15825 4.41235 6.293C4.5471 6.42775 4.72986 6.50345 4.92042 6.50345C10.051 6.50345 14.2253 10.6777 14.2253 15.8083Z" fill="#006BFF"/>
<path id="Vector_3" d="M9.51895 15.8051C9.51895 15.9957 9.59465 16.1784 9.7294 16.3132C9.86415 16.4479 10.0469 16.5236 10.2375 16.5236C10.428 16.5236 10.6108 16.4479 10.7455 16.3132C10.8803 16.1784 10.956 15.9957 10.956 15.8051C10.956 12.4769 8.24861 9.76953 4.92042 9.76953C4.72986 9.76953 4.5471 9.84523 4.41235 9.97998C4.27761 10.1147 4.2019 10.2975 4.2019 10.4881C4.2019 10.6786 4.27761 10.8614 4.41235 10.9961C4.5471 11.1309 4.72986 11.2066 4.92042 11.2066C6.13962 11.2079 7.3085 11.6928 8.1706 12.5549C9.03271 13.417 9.51762 14.5859 9.51895 15.8051Z" fill="#006BFF"/>
<path id="Vector_4" d="M5.10005 16.5268C5.59609 16.5268 5.9982 16.1247 5.9982 15.6286C5.9982 15.1326 5.59609 14.7305 5.10005 14.7305C4.60402 14.7305 4.2019 15.1326 4.2019 15.6286C4.2019 16.1247 4.60402 16.5268 5.10005 16.5268Z" fill="#006BFF"/>
</g>
</g>
</g>
<defs>
<clipPath id="clip0_1991_34787">
<rect width="20" height="20" fill="white"/>
</clipPath>
</defs>
</svg>
