<svg width="20" height="20" viewBox="0 0 20 20" fill="none" xmlns="http://www.w3.org/2000/svg">
<g id="Capa_1" clip-path="url(#clip0_1991_34794)">
<g id="Group">
<path id="Vector" d="M11.6665 9.1665C12.1267 9.1665 12.4998 8.79344 12.4998 8.33325C12.4998 7.87305 12.1267 7.5 11.6665 7.5H8.33349C7.8733 7.5 7.50024 7.87305 7.50024 8.33325C7.50024 8.79344 7.8733 9.1665 8.33349 9.1665H11.6665Z" fill="#006BFF"/>
<path id="Vector_2" d="M12.4998 5.00122C12.4998 4.54102 12.1268 4.16797 11.6666 4.16797H5.00048C4.54029 4.16797 4.16724 4.54102 4.16724 5.00122C4.16724 5.46141 4.54029 5.83447 5.00048 5.83447H11.6666C12.1268 5.83447 12.4998 5.46141 12.4998 5.00122Z" fill="#006BFF"/>
<path id="Vector_3" d="M15.6639 4.37568C13.4783 0.326573 8.42412 -1.18412 4.37505 1.00144C1.68013 2.45608 0.000468909 5.27189 0.000976678 8.33432V14.1671C0.00249998 15.5471 1.1208 16.6654 2.50076 16.6669H5.02281C6.58842 18.7628 9.05055 19.998 11.6667 20H17.4995C18.8794 19.9984 19.9977 18.8801 19.9993 17.5002V11.6674C20.0035 8.62488 18.3389 5.82516 15.6639 4.37568ZM1.66751 14.1672V8.33432C1.66751 4.65273 4.65202 1.66822 8.33362 1.66822C12.0152 1.66822 14.9997 4.65273 14.9997 8.33432C14.9997 12.0159 12.0152 15.0004 8.33362 15.0004H2.50076C2.0408 14.9998 1.6681 14.6271 1.66751 14.1672ZM18.3327 17.5002C18.3321 17.9602 17.9594 18.3329 17.4995 18.3335H11.6667C10.0452 18.3337 8.47974 17.7409 7.26504 16.6669H8.33362C12.9018 16.7008 16.6324 13.0249 16.6662 8.45673C16.6694 8.02814 16.6393 7.59997 16.5761 7.17606C17.7057 8.39889 18.333 10.0026 18.3328 11.6674L18.3327 17.5002Z" fill="#006BFF"/>
</g>
</g>
<defs>
<clipPath id="clip0_1991_34794">
<rect width="20" height="20" fill="white"/>
</clipPath>
</defs>
</svg>
