<svg width="20" height="20" viewBox="0 0 20 20" fill="none" xmlns="http://www.w3.org/2000/svg">
<g id="Capa_1" clip-path="url(#clip0_1991_34781)">
<g id="Group">
<path id="Vector" d="M19.7501 8.02645L16.8359 5.59794V2.6172C16.8359 2.2936 16.5736 2.03126 16.25 2.03126H12.5623L10.3837 0.143174C10.1635 -0.0477246 9.83648 -0.0477246 9.61625 0.143174L7.4377 2.03126H3.75C3.42641 2.03126 3.16406 2.2936 3.16406 2.6172V5.59794L0.249883 8.02645C0.116328 8.13774 0.0390625 8.30267 0.0390625 8.47657V19.4141C0.0390625 19.7377 0.301406 20 0.625 20H19.375C19.6986 20 19.9609 19.7377 19.9609 19.4141V8.47657C19.9609 8.30267 19.8837 8.13774 19.7501 8.02645ZM6.70184 13.9453L1.21094 18.2161V9.67458L6.70184 13.9453ZM7.85727 14.5313H12.1427L17.6673 18.8281H2.33273L7.85727 14.5313ZM13.2982 13.9453L18.7891 9.67458V18.2161L13.2982 13.9453ZM18.4409 8.46083L16.8359 9.70911V7.12337L18.4409 8.46083ZM10 1.36134L10.773 2.03126H9.22699L10 1.36134ZM15.6641 3.20313V10.6206L12.1427 13.3594H7.85727L4.33594 10.6206V3.20313H15.6641ZM3.16406 9.70911L1.55914 8.46083L3.16406 7.12341V9.70911Z" fill="#006BFF"/>
<path id="Vector_2" d="M7.38232 11.6709C8.10189 12.2315 8.99822 12.5541 9.90623 12.5792C9.91178 12.5793 9.91724 12.5794 9.92275 12.5794C10.2388 12.5794 10.4994 12.3276 10.5081 12.0097C10.5171 11.6862 10.2621 11.4167 9.93865 11.4078C8.56127 11.3696 7.35396 10.4103 7.00271 9.0746C6.57971 7.46624 7.49064 5.81093 9.07654 5.30608C9.88111 5.04999 10.7353 5.12538 11.4815 5.51843C12.2252 5.91003 12.7692 6.5678 13.0142 7.3712C13.1669 7.95073 13.115 8.49257 12.8413 9.18073C12.7738 9.35034 12.5659 9.74479 12.0931 9.74479C12.0408 9.74479 11.9943 9.70585 11.9712 9.68261C11.9045 9.61557 11.8649 9.51585 11.8654 9.41593L11.8816 6.16065C11.8832 5.83706 11.6221 5.57343 11.2985 5.57182C11.2976 5.57182 11.2966 5.57182 11.2956 5.57182C11.0097 5.57182 10.7716 5.77702 10.7203 6.04862C10.456 5.9096 10.1618 5.83581 9.85224 5.83581C9.28939 5.83581 8.73814 6.08878 8.33982 6.52979C7.93592 6.97702 7.71349 7.5855 7.71349 8.24307C7.71349 8.89772 7.92256 9.51276 8.30213 9.97495C8.69584 10.4543 9.24646 10.7292 9.81279 10.7292C10.2463 10.7292 10.6445 10.5747 10.9729 10.3076C11.0229 10.3793 11.0786 10.4471 11.1405 10.5093C11.4019 10.7721 11.7403 10.9167 12.0931 10.9167C13.0656 10.9167 13.6797 10.2437 13.9303 9.61386C14.3008 8.68206 14.3668 7.89436 14.1441 7.05999C14.1425 7.0539 14.1408 7.0478 14.1389 7.04179C13.8038 5.93136 13.054 5.02214 12.0276 4.48159C11.0014 3.94108 9.82705 3.83737 8.72107 4.18948C7.67275 4.52319 6.80072 5.24241 6.2656 6.21468C5.73029 7.18725 5.58955 8.30882 5.86935 9.37272C6.11166 10.2938 6.63482 11.0885 7.38232 11.6709ZM9.81283 9.55737C9.36494 9.55737 8.88541 9.02925 8.88541 8.24307C8.88541 7.46979 9.37701 7.00768 9.85228 7.00768C10.3362 7.00768 10.6787 7.47987 10.6998 8.16436L10.699 8.31167C10.6712 9.00554 10.2845 9.55737 9.81283 9.55737Z" fill="#006BFF"/>
</g>
</g>
<defs>
<clipPath id="clip0_1991_34781">
<rect width="20" height="20" fill="white"/>
</clipPath>
</defs>
</svg>
