<svg width="32" height="32" viewBox="0 0 32 32" fill="none" xmlns="http://www.w3.org/2000/svg">
<g clip-path="url(#clip0_1991_19517)">
<path fill-rule="evenodd" clip-rule="evenodd" d="M8.04038 14.4316V20.8729H23.9634V14.4316C23.9634 12.3201 23.1246 10.2951 21.6315 8.802C20.1384 7.30893 18.1134 6.47014 16.0019 6.47014C13.8904 6.47014 11.8653 7.30893 10.3722 8.802C8.87918 10.2951 8.04038 12.3201 8.04038 14.4316ZM14.9566 3.04414C14.9565 3.25089 15.0178 3.45302 15.1326 3.62496C15.2474 3.79691 15.4106 3.93094 15.6016 4.0101C15.7926 4.08927 16.0028 4.11001 16.2056 4.06971C16.4084 4.02941 16.5947 3.92988 16.7409 3.78371C16.8871 3.63753 16.9867 3.45127 17.0271 3.24849C17.0674 3.04571 17.0468 2.83552 16.9677 2.6445C16.8885 2.45347 16.7546 2.2902 16.5827 2.17532C16.4107 2.06045 16.2086 1.99914 16.0019 1.99914C15.7248 1.99933 15.459 2.10949 15.2631 2.30541C15.0671 2.50133 14.9568 2.76702 14.9566 3.04414ZM25.0216 22.8729H6.98225C6.55665 22.8755 6.14939 23.0465 5.84938 23.3483C5.54936 23.6502 5.38098 24.0586 5.38098 24.4842C5.38098 24.9098 5.54936 25.3181 5.84938 25.62C6.14939 25.9219 6.55665 26.0928 6.98225 26.0954H25.0216C25.4472 26.0928 25.8544 25.9219 26.1544 25.62C26.4545 25.3181 26.6228 24.9098 26.6228 24.4842C26.6228 24.0586 26.4545 23.6502 26.1544 23.3483C25.8544 23.0465 25.4472 22.8755 25.0216 22.8729ZM18.3746 28.0954H13.6292C13.749 28.6353 14.0495 29.1182 14.4809 29.4644C14.9122 29.8105 15.4488 29.9992 16.0019 29.9992C16.555 29.9992 17.0915 29.8105 17.5229 29.4644C17.9543 29.1182 18.2547 28.6353 18.3746 28.0954ZM13.5058 4.78738C13.1866 4.33091 12.9986 3.79563 12.9624 3.23976C12.9262 2.6839 13.0431 2.12875 13.3004 1.63472C13.5578 1.14069 13.9457 0.726691 14.422 0.437776C14.8982 0.148862 15.4446 -0.00390625 16.0016 -0.00390625C16.5587 -0.00390625 17.105 0.148862 17.5813 0.437776C18.0576 0.726691 18.4455 1.14069 18.7028 1.63472C18.9602 2.12875 19.0771 2.6839 19.0409 3.23976C19.0047 3.79563 18.8167 4.33091 18.4974 4.78738C22.7861 5.89726 25.9621 9.80051 25.9621 14.4316V20.9979C26.8073 21.226 27.541 21.7534 28.0264 22.482C28.5119 23.2106 28.7161 24.0908 28.6011 24.9587C28.4861 25.8266 28.0597 26.6232 27.4012 27.2002C26.7428 27.7772 25.8971 28.0953 25.0216 28.0954H20.3993C20.2709 29.1714 19.7525 30.1631 18.9421 30.8825C18.1316 31.602 17.0856 31.9994 16.0019 31.9994C14.9182 31.9994 13.8721 31.602 13.0617 30.8825C12.2513 30.1631 11.7328 29.1714 11.6044 28.0954H6.98225C6.10672 28.0954 5.26099 27.7773 4.60247 27.2003C3.94394 26.6234 3.51747 25.8268 3.40242 24.9588C3.28736 24.0909 3.49157 23.2107 3.97703 22.4821C4.46249 21.7535 5.19614 21.226 6.04144 20.9979V14.4316C6.04144 9.80038 9.21744 5.89726 13.5061 4.78738H13.5058ZM15.0021 9.34545C15.0021 9.21415 15.0279 9.08414 15.0781 8.96282C15.1283 8.84151 15.2019 8.73127 15.2947 8.63841C15.3876 8.54555 15.4978 8.47188 15.619 8.42161C15.7403 8.37134 15.8703 8.34546 16.0016 8.34545C17.6139 8.35162 19.1583 8.99485 20.2982 10.1349C21.4382 11.275 22.0813 12.8195 22.0873 14.4317C22.0873 14.563 22.0615 14.6929 22.0112 14.8142C21.961 14.9355 21.8874 15.0456 21.7946 15.1385C21.7018 15.2313 21.5916 15.3049 21.4703 15.3551C21.349 15.4053 21.2191 15.4312 21.0878 15.4312C20.9566 15.4312 20.8266 15.4053 20.7053 15.3551C20.5841 15.3049 20.4739 15.2313 20.3811 15.1385C20.2883 15.0456 20.2146 14.9355 20.1644 14.8142C20.1142 14.6929 20.0883 14.563 20.0883 14.4317C20.0871 13.3483 19.6562 12.3096 18.8901 11.5435C18.124 10.7775 17.0853 10.3466 16.0019 10.3454C15.8706 10.3454 15.7405 10.3196 15.6192 10.2693C15.4979 10.2191 15.3877 10.1454 15.2949 10.0526C15.2021 9.95971 15.1284 9.84946 15.0783 9.72812C15.0281 9.60679 15.0023 9.47675 15.0024 9.34545H15.0021Z" fill="white"/>
</g>
<defs>
<clipPath id="clip0_1991_19517">
<rect width="32" height="32" fill="white"/>
</clipPath>
</defs>
</svg>
