<svg width="13" height="16" viewBox="0 0 13 16" fill="none" xmlns="http://www.w3.org/2000/svg">
<path fill-rule="evenodd" clip-rule="evenodd" d="M7.24512 1.38823C7.24512 0.975359 6.91044 0.640625 6.49752 0.640625C6.08464 0.640625 5.74991 0.975359 5.74991 1.38823V1.94895H5.33314C3.66964 1.94895 2.29278 3.24238 2.18895 4.90264L2.02372 7.54437C1.96072 8.55158 1.62261 9.52217 1.04614 10.3505C0.525266 11.0989 0.988953 12.1325 1.8943 12.2412L4.44153 12.5469V13.3503C4.44153 14.4858 5.36202 15.4062 6.49752 15.4062C7.63302 15.4062 8.5535 14.4858 8.5535 13.3503V12.5469L11.1007 12.2412C12.0061 12.1325 12.4698 11.0989 11.9489 10.3505C11.3724 9.52217 11.0343 8.55158 10.9713 7.54437L10.8061 4.90264C10.7023 3.24238 9.32539 1.94895 7.66189 1.94895H7.24512V1.38823ZM5.56297 13.3503C5.56297 13.8664 5.98138 14.2848 6.49752 14.2848C7.01366 14.2848 7.43206 13.8664 7.43206 13.3503V12.7895H5.56297V13.3503Z" fill="url(#paint0_linear_1_16157)"/>
<defs>
<linearGradient id="paint0_linear_1_16157" x1="6.49752" y1="0.640625" x2="6.49752" y2="15.4062" gradientUnits="userSpaceOnUse">
<stop stop-color="#466AFF"/>
<stop offset="1" stop-color="#06B8FF"/>
</linearGradient>
</defs>
</svg>
