<svg width="24" height="24" viewBox="0 0 24 24" fill="none" xmlns="http://www.w3.org/2000/svg">
<path d="M16.8105 9.69525C17.1622 8.976 17.772 8.43525 18.5303 8.17425C18.8475 8.06475 19.1745 8.02275 19.5 8.02125V3.75C19.5 2.5095 18.4905 1.5 17.25 1.5H5.25C4.0095 1.5 3 2.5095 3 3.75V18.75C3 19.9905 4.0095 21 5.25 21H12.7118L12.6307 20.7645C12.3045 19.8127 12.3682 18.7957 12.8085 17.8965L16.8105 9.69525ZM6 6H15C15.4148 6 15.75 6.336 15.75 6.75C15.75 7.164 15.4148 7.5 15 7.5H6C5.58525 7.5 5.25 7.164 5.25 6.75C5.25 6.336 5.58525 6 6 6ZM6 9H14.25C14.6648 9 15 9.336 15 9.75C15 10.164 14.6648 10.5 14.25 10.5H6C5.58525 10.5 5.25 10.164 5.25 9.75C5.25 9.336 5.58525 9 6 9ZM11.25 16.5H6C5.58525 16.5 5.25 16.164 5.25 15.75C5.25 15.336 5.58525 15 6 15H11.25C11.6648 15 12 15.336 12 15.75C12 16.164 11.6648 16.5 11.25 16.5ZM6 13.5C5.58525 13.5 5.25 13.164 5.25 12.75C5.25 12.336 5.58525 12 6 12H12.75C13.1648 12 13.5 12.336 13.5 12.75C13.5 13.164 13.1648 13.5 12.75 13.5H6ZM22.203 12.3263L18.1995 20.5305C17.9348 21.0713 17.4765 21.4762 16.9088 21.6712L15.4905 22.1588C15.4102 22.1865 15.327 22.2 15.2467 22.2C14.9355 22.2 14.6445 22.005 14.538 21.6937L14.0497 20.2755C13.854 19.7055 13.8923 19.095 14.1562 18.5557L18.1597 10.353C18.3345 9.993 18.6405 9.723 19.0192 9.5925C19.3972 9.462 19.8045 9.486 20.1645 9.663L21.513 10.3207C21.873 10.4963 22.143 10.8022 22.2735 11.181C22.404 11.5597 22.3792 11.9662 22.203 12.3263Z" fill="white"/>
</svg>
