<svg width="28" height="28" viewBox="0 0 28 28" fill="none" xmlns="http://www.w3.org/2000/svg">
<path fill-rule="evenodd" clip-rule="evenodd" d="M4.22732 7.6802L8.81998 12.2748C9.82165 13.2746 11.459 13.2755 12.4615 12.2748L17.0542 7.6802C17.1004 7.63395 17.0937 7.55778 17.04 7.52036C16.5716 7.19367 16.0017 7 15.3878 7H5.89379C5.27983 7 4.70989 7.19371 4.24146 7.52036C4.18781 7.55778 4.18107 7.63395 4.22732 7.6802ZM3 9.89375C3 9.41098 3.1197 8.95483 3.33054 8.55391C3.36351 8.49119 3.44708 8.4785 3.49718 8.52861L8.0317 13.0631C9.46764 14.5012 11.813 14.502 13.2498 13.0631L17.7844 8.52861C17.8345 8.4785 17.918 8.49119 17.951 8.55391C18.1618 8.95483 18.2815 9.41101 18.2815 9.89375V15.9346C18.2815 17.5315 16.9826 18.8284 15.3878 18.8284H5.89379C4.29897 18.8284 3 17.5315 3 15.9346V9.89375Z" fill="white"/>
<path d="M14.7592 22.0495L15.2208 22.0495L15.2972 21.5943C15.4112 20.9151 15.5503 20.2491 15.7899 19.6687C16.0274 19.0931 16.3503 18.6351 16.8129 18.335L17.7353 17.7368L16.701 17.3643C16.2181 17.1903 15.7982 16.865 15.5198 16.4381L15.2569 16.0348L14.824 16.2457C12.9744 17.1467 11.9314 19.1451 12.2027 21.1843C12.2325 21.4732 12.3722 21.7329 12.6092 21.8977C12.821 22.0449 13.0744 22.0909 13.3138 22.0495L14.7592 22.0495Z" fill="white" stroke="#8694A4" stroke-width="1.09091"/>
<path d="M25.1901 8.55387C25.1901 8.09609 24.8176 7.72754 24.3637 7.72754C23.906 7.72754 23.5374 8.09997 23.5374 8.55387V9.62848H22.4628C22.005 9.62848 21.6365 10.0009 21.6365 10.4548C21.6365 10.9126 22.0089 11.2811 22.4628 11.2811H23.5374V12.3558C23.5374 12.8135 23.9098 13.1821 24.3637 13.1821C24.8215 13.1821 25.1901 12.8097 25.1901 12.3558V11.2811H26.2647C26.7225 11.2811 27.091 10.9087 27.091 10.4548C27.091 9.99703 26.7186 9.62848 26.2647 9.62848H25.1901V8.55387Z" fill="white"/>
<path d="M17.1659 16.7099L18.3128 17.2175L18.0734 15.9864C18.0489 15.8605 18.0362 15.7267 18.0362 15.591C18.0362 14.511 18.8701 13.5745 19.924 13.419L21.1487 13.2384L20.3099 12.328C19.8075 11.7826 19.0847 11.4373 18.2816 11.4373C16.76 11.4373 15.5271 12.6701 15.5271 14.1918C15.5271 15.3151 16.2013 16.2828 17.1659 16.7099Z" fill="white" stroke="#8694A4" stroke-width="1.30909"/>
<path d="M19.0063 18.7604C18.0993 19.1283 17.3493 19.7986 16.8829 20.6494C16.6344 21.1041 16.468 21.6104 16.4047 22.1494C16.3555 22.4494 16.5547 22.6486 16.8055 22.6486H24.4063C24.6571 22.6486 24.8563 22.3979 24.8071 22.1494C24.5563 20.0494 22.7563 18.3994 20.6071 18.3994C20.2579 18.3994 19.9063 18.4486 19.6063 18.5494C19.5594 18.5611 19.5196 18.5775 19.4844 18.5986C19.318 18.6455 19.161 18.6971 19.0063 18.7604Z" fill="white"/>
<path d="M20.6351 13.5014C21.7718 13.5178 22.7046 14.4623 22.7046 15.6014C22.7046 16.7521 21.7554 17.7014 20.6046 17.7014C20.2625 17.7014 19.9367 17.617 19.6484 17.467C19.2101 17.2396 18.8585 16.86 18.6664 16.4006C18.6523 16.3678 18.6382 16.3326 18.6265 16.2998C18.5468 16.0795 18.5046 15.8451 18.5046 15.599C18.5046 14.399 19.4539 13.499 20.6046 13.499C20.614 13.5014 20.6234 13.5014 20.6351 13.5014Z" fill="white"/>
</svg>
