<svg width="126" height="121" viewBox="0 0 126 121" fill="none" xmlns="http://www.w3.org/2000/svg">
<g clip-path="url(#clip0_1991_36324)">
<path d="M102.819 33.9643L45.1133 50.25L64.9381 120.497L122.644 104.211L102.819 33.9643Z" fill="#006BFF"/>
<path d="M111.122 32.3672H68.9141V106.067H125.867V47.4416L111.126 32.3672H111.122Z" fill="url(#paint0_linear_1991_36324)"/>
<path d="M110.129 36.1406V52.6751L125.768 47.4379L112.097 48.2229L110.129 36.1406Z" fill="#006BFF"/>
<path d="M68.9102 105.721L125.912 59.6328L125.863 105.721" fill="#9BBFF1"/>
<path d="M98.8968 85.7188H77.4551V90.2392H98.8968V85.7188Z" fill="white"/>
<path d="M108.609 77.3438H77.4551V81.868H108.609V77.3438Z" fill="white"/>
<path d="M108.609 68.0469H77.4551V72.5711H108.609V68.0469Z" fill="white"/>
<path d="M80.3155 32.9219C78.0519 52.1446 64.8119 63.8195 49.1503 63.8195C48.4729 63.8195 47.7588 63.4952 46.9121 63.4521V66.5603C47.7588 66.6004 48.4729 66.9219 49.1503 66.9219C66.5025 66.9219 80.6118 53.8321 82.9121 33.1429L80.3155 32.9219Z" fill="white"/>
<path d="M21.9395 61.6383L25.9248 58.3047L28.324 61.3326L23.3438 64.7325L21.9395 61.6383Z" fill="#005AD6"/>
<path d="M6.63069 81.7152L26.6323 65.6615C25.0981 60.5429 21.5252 59.1875 21.5252 59.1875L1.16602 75.1432C2.69151 76.0487 5.11384 77.7386 6.63069 81.7152Z" fill="#006BFF"/>
<path d="M78.8681 21.4167C71.7511 8.37066 53.5576 4.57855 38.2363 12.9414C22.9151 21.3042 16.2681 38.6585 23.388 51.7016C30.5051 64.7476 48.7014 68.5426 64.0227 60.1769C79.3411 51.817 85.9909 34.4627 78.871 21.4167H78.8681ZM61.5311 55.8888C48.4707 63.0174 33.0543 59.9433 27.0936 49.0197C21.1329 38.0962 26.886 23.467 39.9435 16.3384C53.0039 9.21271 68.4204 12.2839 74.381 23.2046C80.3417 34.1282 74.5887 48.7602 61.5282 55.8859L61.5311 55.8888Z" fill="#006BFF"/>
<path d="M41.1473 19.8985C53.8271 13.139 68.8888 16.2217 74.7889 26.7877C74.9908 27.1482 75.1753 27.5116 75.3512 27.8778C74.9735 26.6291 74.463 25.4036 73.8055 24.227C67.9054 13.661 52.7831 10.6129 40.0313 17.4127C27.2794 24.2126 21.7254 38.2852 27.6255 48.8512C27.7495 49.0703 27.8792 49.2808 28.0119 49.4914C23.6084 39.1763 29.1654 26.286 41.1473 19.8985Z" fill="#005AD6"/>
<path d="M82.6022 30.3594C84.0123 41.9923 77.0597 54.7269 64.4347 61.619C49.1711 69.9501 31.2112 66.7002 23.4453 54.4876C23.7769 55.2719 24.0942 56.0765 24.5584 56.809C32.9241 69.9242 50.3217 74.0393 65.8391 65.5697C79.8367 57.9279 87.0518 43.6072 82.6022 30.3594Z" fill="#005AD6"/>
<path d="M0.5 75.4766C0.5 75.4766 4.71313 78.0517 5.8003 81.9851C5.8003 81.9851 2.40038 81.4632 0.5 75.4766Z" fill="#005AD6"/>
</g>
<defs>
<linearGradient id="paint0_linear_1991_36324" x1="104.672" y1="49.1102" x2="76.9007" y2="125.779" gradientUnits="userSpaceOnUse">
<stop stop-color="#BED9FF"/>
<stop offset="1" stop-color="#004EBB"/>
</linearGradient>
<clipPath id="clip0_1991_36324">
<rect width="125" height="120" fill="white" transform="translate(0.5 0.5)"/>
</clipPath>
</defs>
</svg>
