<svg width="188" height="82" viewBox="0 0 188 82" fill="none" xmlns="http://www.w3.org/2000/svg">
<path style="mix-blend-mode:multiply" opacity="0.5" d="M23.5859 44.3571C36.4572 44.3571 46.8915 40.8669 46.8915 36.5614C46.8915 32.2559 36.4572 28.7656 23.5859 28.7656C10.7145 28.7656 0.280273 32.2559 0.280273 36.5614C0.280273 40.8669 10.7145 44.3571 23.5859 44.3571Z" fill="url(#paint0_radial_1991_36359)"/>
<path d="M23.5854 43.5857C10.9989 43.5857 1.13965 40.4992 1.13965 36.5585C1.13965 32.6177 10.9989 29.5312 23.5854 29.5312C36.1719 29.5312 46.0311 32.6177 46.0311 36.5585C46.0311 40.4992 36.1719 43.5857 23.5854 43.5857ZM23.5854 30.3638C10.6562 30.3638 1.97166 33.567 1.97166 36.5585C1.97166 39.5499 10.6562 42.7532 23.5854 42.7532C36.5146 42.7532 45.1991 39.5499 45.1991 36.5585C45.1991 33.567 36.5146 30.3638 23.5854 30.3638Z" fill="#006BFF"/>
<path d="M26.2784 26.7607C28.2015 25.798 29.5104 23.8178 29.5104 21.535C29.5104 18.3008 26.8823 15.6719 23.6512 15.6719C20.4202 15.6719 17.8024 18.3018 17.8024 21.535C17.8024 23.8178 19.1103 25.798 21.0231 26.7607C16.6504 27.9135 13.4297 31.908 13.4297 36.6524C13.4297 39.8525 33.8821 39.8525 33.8821 36.6524C33.8821 31.908 30.65 27.9135 26.2784 26.7607Z" fill="#006BFF"/>
<path style="mix-blend-mode:multiply" opacity="0.5" d="M159.497 51.2029C175.084 51.2029 187.72 46.9759 187.72 41.7616C187.72 36.5473 175.084 32.3203 159.497 32.3203C143.909 32.3203 131.273 36.5473 131.273 41.7616C131.273 46.9759 143.909 51.2029 159.497 51.2029Z" fill="url(#paint1_radial_1991_36359)"/>
<path d="M159.496 50.1794C144.303 50.1794 132.402 46.4804 132.402 41.7577C132.402 37.035 144.303 33.3359 159.496 33.3359C174.689 33.3359 186.59 37.035 186.59 41.7577C186.59 46.4804 174.688 50.1794 159.496 50.1794ZM159.496 34.1675C145.26 34.1675 133.234 37.6434 133.234 41.7577C133.234 45.872 145.261 49.3479 159.496 49.3479C173.731 49.3479 185.759 45.872 185.759 41.7577C185.759 37.6434 173.732 34.1675 159.496 34.1675Z" fill="#006BFF"/>
<path d="M162.757 29.8894C165.087 28.7243 166.67 26.3257 166.67 23.5615C166.67 19.6456 163.488 16.4609 159.574 16.4609C155.661 16.4609 152.492 19.6456 152.492 23.5615C152.492 26.3257 154.076 28.7243 156.392 29.8894C151.097 31.285 147.196 36.1234 147.196 41.8687C147.196 45.7444 171.965 45.7444 171.965 41.8687C171.965 36.1234 168.051 31.285 162.756 29.8894H162.757Z" fill="#006BFF"/>
<path style="mix-blend-mode:multiply" opacity="0.5" d="M71.9707 20.3675C80.7156 20.3675 87.8048 17.9959 87.8048 15.0705C87.8048 12.145 80.7156 9.77344 71.9707 9.77344C63.2259 9.77344 56.1367 12.145 56.1367 15.0705C56.1367 17.9959 63.2259 20.3675 71.9707 20.3675Z" fill="url(#paint2_radial_1991_36359)"/>
<path d="M71.9708 19.9793C64.5126 19.9793 56.5879 18.2594 56.5879 15.0717C56.5879 11.8839 64.5137 10.1641 71.9708 10.1641C79.4279 10.1641 87.3537 11.8839 87.3537 15.0717C87.3537 18.2594 79.4279 19.9793 71.9708 19.9793ZM71.9708 10.9956C63.3947 10.9956 57.4189 13.1431 57.4189 15.0706C57.4189 16.9981 63.3947 19.1457 71.9708 19.1457C80.5469 19.1457 86.5217 16.9981 86.5217 15.0706C86.5217 13.1431 80.5459 10.9956 71.9708 10.9956Z" fill="#006BFF"/>
<path d="M73.8002 8.40942C75.107 7.75556 75.9958 6.40961 75.9958 4.85913C75.9958 2.66202 74.21 0.875 72.0144 0.875C69.8187 0.875 68.0411 2.66202 68.0411 4.85913C68.0411 6.40961 68.9299 7.75556 70.2296 8.40942C67.2587 9.19241 65.0713 11.907 65.0713 15.1299C65.0713 17.3043 78.9667 17.3043 78.9667 15.1299C78.9667 11.906 76.7711 9.19241 73.8002 8.40942Z" fill="#006BFF"/>
<path d="M142.03 47.6098L127.464 55.5469L127.862 56.2781L142.428 48.341L142.03 47.6098Z" fill="#006BFF"/>
<path d="M31.2228 42.3284L30.9141 43.1016L68.2068 58.0125L68.5155 57.2393L31.2228 42.3284Z" fill="#006BFF"/>
<path d="M64.9213 18.6693L34.373 30.4219L34.6712 31.198L65.2195 19.4454L64.9213 18.6693Z" fill="#006BFF"/>
<path style="mix-blend-mode:multiply" opacity="0.5" d="M101.254 81.1247C126.232 81.1247 146.48 74.3513 146.48 65.9959C146.48 57.6406 126.232 50.8672 101.254 50.8672C76.2766 50.8672 56.0283 57.6406 56.0283 65.9959C56.0283 74.3513 76.2766 81.1247 101.254 81.1247Z" fill="url(#paint3_radial_1991_36359)"/>
<path d="M101.253 79.2471C77.0487 79.2471 58.0869 73.4294 58.0869 66.0024C58.0869 58.5755 77.0477 52.7578 101.253 52.7578C125.459 52.7578 144.42 58.5755 144.42 66.0024C144.42 73.4294 125.459 79.2471 101.253 79.2471ZM101.253 53.5893C78.306 53.5893 58.9189 59.2737 58.9189 66.0024C58.9189 72.7312 78.305 78.4155 101.253 78.4155C124.202 78.4155 143.588 72.7312 143.588 66.0024C143.588 59.2737 124.201 53.5893 101.253 53.5893Z" fill="#006BFF"/>
<path d="M106.478 46.9806C110.211 45.113 112.751 41.2694 112.751 36.84C112.751 30.5648 107.651 25.4609 101.38 25.4609C95.109 25.4609 90.0302 30.5638 90.0302 36.84C90.0302 41.2694 92.5696 45.113 96.2796 46.9806C87.7953 49.217 81.5449 56.9694 81.5449 66.1772C81.5449 72.3874 121.235 72.3874 121.235 66.1772C121.235 56.9704 114.964 49.218 106.478 46.9806Z" fill="#006BFF"/>
<defs>
<radialGradient id="paint0_radial_1991_36359" cx="0" cy="0" r="1" gradientUnits="userSpaceOnUse" gradientTransform="translate(23.4268 33.219) scale(23.2675 7.65889)">
<stop offset="0.22" stop-color="#002E57"/>
<stop offset="0.23" stop-color="#023058"/>
<stop offset="0.29" stop-color="#375B7B"/>
<stop offset="0.35" stop-color="#66819A"/>
<stop offset="0.42" stop-color="#8FA3B5"/>
<stop offset="0.5" stop-color="#B1BFCC"/>
<stop offset="0.57" stop-color="#CDD6DE"/>
<stop offset="0.66" stop-color="#E3E8ED"/>
<stop offset="0.75" stop-color="#F3F5F7"/>
<stop offset="0.85" stop-color="#FCFCFD"/>
<stop offset="1" stop-color="white"/>
</radialGradient>
<radialGradient id="paint1_radial_1991_36359" cx="0" cy="0" r="1" gradientUnits="userSpaceOnUse" gradientTransform="translate(159.123 38.3275) scale(28.1771 9.27496)">
<stop offset="0.22" stop-color="#002E57"/>
<stop offset="0.23" stop-color="#023058"/>
<stop offset="0.29" stop-color="#375B7B"/>
<stop offset="0.35" stop-color="#66819A"/>
<stop offset="0.42" stop-color="#8FA3B5"/>
<stop offset="0.5" stop-color="#B1BFCC"/>
<stop offset="0.57" stop-color="#CDD6DE"/>
<stop offset="0.66" stop-color="#E3E8ED"/>
<stop offset="0.75" stop-color="#F3F5F7"/>
<stop offset="0.85" stop-color="#FCFCFD"/>
<stop offset="1" stop-color="white"/>
</radialGradient>
<radialGradient id="paint2_radial_1991_36359" cx="0" cy="0" r="1" gradientUnits="userSpaceOnUse" gradientTransform="translate(71.7357 12.1084) scale(15.8082 5.20354)">
<stop offset="0.22" stop-color="#002E57"/>
<stop offset="0.23" stop-color="#023058"/>
<stop offset="0.29" stop-color="#375B7B"/>
<stop offset="0.35" stop-color="#66819A"/>
<stop offset="0.42" stop-color="#8FA3B5"/>
<stop offset="0.5" stop-color="#B1BFCC"/>
<stop offset="0.57" stop-color="#CDD6DE"/>
<stop offset="0.66" stop-color="#E3E8ED"/>
<stop offset="0.75" stop-color="#F3F5F7"/>
<stop offset="0.85" stop-color="#FCFCFD"/>
<stop offset="1" stop-color="white"/>
</radialGradient>
<radialGradient id="paint3_radial_1991_36359" cx="0" cy="0" r="1" gradientUnits="userSpaceOnUse" gradientTransform="translate(100.973 62.134) scale(45.1519 14.8625)">
<stop offset="0.22" stop-color="#002E57"/>
<stop offset="0.23" stop-color="#023058"/>
<stop offset="0.29" stop-color="#375B7B"/>
<stop offset="0.35" stop-color="#66819A"/>
<stop offset="0.42" stop-color="#8FA3B5"/>
<stop offset="0.5" stop-color="#B1BFCC"/>
<stop offset="0.57" stop-color="#CDD6DE"/>
<stop offset="0.66" stop-color="#E3E8ED"/>
<stop offset="0.75" stop-color="#F3F5F7"/>
<stop offset="0.85" stop-color="#FCFCFD"/>
<stop offset="1" stop-color="white"/>
</radialGradient>
</defs>
</svg>
