<svg width="32" height="32" viewBox="0 0 32 32" fill="none" xmlns="http://www.w3.org/2000/svg">
<g clip-path="url(#clip0_1991_19546)">
<path d="M18.6661 14.6664C19.4024 14.6664 19.9993 14.0695 19.9993 13.3332C19.9993 12.5969 19.4024 12 18.6661 12H13.3332C12.5969 12 12 12.5969 12 13.3332C12 14.0695 12.5969 14.6664 13.3332 14.6664H18.6661Z" fill="white"/>
<path d="M20.0001 8.00117C20.0001 7.26486 19.4032 6.66797 18.6669 6.66797H8.00117C7.26485 6.66797 6.66797 7.26486 6.66797 8.00117C6.66797 8.73748 7.26485 9.33436 8.00117 9.33436H18.6669C19.4032 9.33436 20.0001 8.73748 20.0001 8.00117Z" fill="white"/>
<path d="M25.0607 7.00109C21.5638 0.522517 13.477 -1.89459 6.99852 1.6023C2.68664 3.92972 -0.000812246 8.43503 1.84149e-07 13.3349V22.6674C0.00243747 24.8754 1.79172 26.6646 3.99966 26.6671H8.03493C10.5399 30.0205 14.4793 31.9968 18.6651 31.9999H27.9976C30.2055 31.9975 31.9948 30.2082 31.9972 28.0003V18.6678C32.0041 13.7998 29.3407 9.32026 25.0607 7.00109ZM2.66646 22.6675V13.3349C2.66646 7.44436 7.44167 2.66915 13.3322 2.66915C19.2228 2.66915 23.998 7.44436 23.998 13.3349C23.998 19.2255 19.2228 24.0007 13.3322 24.0007H3.99966C3.26372 23.9998 2.6674 23.4034 2.66646 22.6675ZM29.3308 28.0003C29.3299 28.7363 28.7335 29.3326 27.9976 29.3335H18.6651C16.0708 29.3339 13.566 28.3855 11.6225 26.6671H13.3322C20.6413 26.7212 26.6103 20.8399 26.6644 13.5308C26.6695 12.845 26.6213 12.16 26.5202 11.4817C28.3276 13.4382 29.3312 16.0041 29.3309 18.6678L29.3308 28.0003Z" fill="white"/>
</g>
<defs>
<clipPath id="clip0_1991_19546">
<rect width="32" height="32" fill="white"/>
</clipPath>
</defs>
</svg>
